# xmcd CD database file
#
# Track frame offsets:
#	150
#	20813
#	43951
#	63124
#	86873
#	106527
#	120584
#	136309
#	159306
#	172858
#	186030
#
# Disc length: 2837 seconds
#
# Revision: 0
# Processed by: cddbd v1.5.1PL0 Copyright (c) Steve Scherf et al.
# Submitted via: CDex 1.51
#
DISCID=870b130b
DTITLE=Tommy Z - Universal
DYEAR=2005
DGENRE=Blues
TTITLE0=Almost Heaven
TTITLE1=Can't Hide My Feelings
TTITLE2=Universal Love
TTITLE3=Right To The Bottom
TTITLE4=The Lovin' I Miss
TTITLE5=Justice
TTITLE6=Watered Down Love
TTITLE7=I Wanna Go To Heaven
TTITLE8=Cover Me
TTITLE9=In All Of Creation
TTITLE10=The Blues Has Got To Come Home
EXTD=YEAR: 2005
EXTT0=
EXTT1=
EXTT2=
EXTT3=
EXTT4=
EXTT5=
EXTT6=
EXTT7=
EXTT8=
EXTT9=
EXTT10=
PLAYORDER=
